<svg id="logo" width="124" height="30" viewBox="0 0 124 30" fill="currentColor" xmlns="http://www.w3.org/2000/svg">
    <g filter="url(#filter0_d_8_11)">
        <path d="M20.3594 2.82812C20.5885 2.49479 20.8125 2.26562 21.0312 2.14062C21.2604 2.01562 21.5781 1.95312 21.9844 1.95312C22.5885 1.95312 22.9479 2.06771 23.0625 2.29688C23.1875 2.51562 23.1927 2.95833 23.0781 3.625L22.5 6.625L22.4688 6.79688C22.3333 7.41146 22.1146 7.84375 21.8125 8.09375C21.5208 8.33333 21.0833 8.45312 20.5 8.45312C19.7604 8.45312 19.2917 8.05729 19.0938 7.26562C19.0729 7.15104 19.0521 7.05729 19.0312 6.98438C18.8438 6.33854 18.5104 5.85417 18.0312 5.53125C17.5521 5.19792 16.9375 5.03125 16.1875 5.03125C15.25 5.03125 14.4427 5.25 13.7656 5.6875C13.099 6.11458 12.6927 6.66667 12.5469 7.34375C12.349 8.30208 13.5104 9.05729 16.0312 9.60938C16.4688 9.70312 16.8073 9.77604 17.0469 9.82812C18.9635 10.2656 20.2708 10.9323 20.9688 11.8281C21.6771 12.724 21.8646 13.9479 21.5312 15.5C21.125 17.4167 20.1615 18.8958 18.6406 19.9375C17.1198 20.9688 15.1458 21.4844 12.7188 21.4844C11.7708 21.4844 10.9375 21.4219 10.2188 21.2969C9.5 21.1719 8.81771 20.9792 8.17188 20.7188C7.95312 20.9896 7.71875 21.1823 7.46875 21.2969C7.22917 21.4219 6.91667 21.4844 6.53125 21.4844C5.875 21.4844 5.44271 21.3594 5.23438 21.1094C5.02604 20.8594 4.98438 20.4167 5.10938 19.7812L5.82812 16.1094L5.85938 15.9375C6.00521 15.25 6.23438 14.7708 6.54688 14.5C6.85938 14.2292 7.33333 14.0938 7.96875 14.0938C8.64583 14.0938 9.10938 14.5833 9.35938 15.5625C9.42188 15.8021 9.46875 15.9844 9.5 16.1094C9.73958 16.9115 10.1771 17.5104 10.8125 17.9062C11.4583 18.3021 12.3073 18.5 13.3594 18.5C14.3177 18.5 15.1042 18.3021 15.7188 17.9062C16.3333 17.5104 16.7135 16.9531 16.8594 16.2344C17.099 15.1198 16.0781 14.276 13.7969 13.7031C13.1094 13.5365 12.5729 13.3958 12.1875 13.2812C10.2708 12.75 9.00521 12.0885 8.39062 11.2969C7.78646 10.4948 7.63021 9.40104 7.92188 8.01562C8.29688 6.23438 9.27604 4.78125 10.8594 3.65625C12.4427 2.52083 14.2969 1.95312 16.4219 1.95312C17.1302 1.95312 17.8073 2.02604 18.4531 2.17188C19.1094 2.31771 19.7448 2.53646 20.3594 2.82812ZM27.2031 12.0156H40.1562C40.4062 12.0156 40.5833 12.0781 40.6875 12.2031C40.7917 12.3281 40.8177 12.5104 40.7656 12.75L40.3438 14.7031C40.3021 14.9219 40.1771 15.1198 39.9688 15.2969C39.7708 15.474 39.5781 15.5625 39.3906 15.5625H26.4375C26.2292 15.5625 26.0833 15.4844 26 15.3281C25.9167 15.1719 25.901 14.9635 25.9531 14.7031L26.375 12.75C26.4167 12.5312 26.5156 12.3542 26.6719 12.2188C26.8281 12.0833 27.0052 12.0156 27.2031 12.0156ZM59.7656 2.98438C60.0469 2.60938 60.3125 2.34375 60.5625 2.1875C60.8229 2.03125 61.1198 1.95312 61.4531 1.95312C61.9635 1.95312 62.2969 2.08854 62.4531 2.35938C62.6094 2.63021 62.6146 3.09375 62.4688 3.75L61.6406 7.8125C61.4844 8.53125 61.2604 9.01562 60.9688 9.26562C60.6875 9.51562 60.2396 9.64062 59.625 9.64062C59.1875 9.64062 58.875 9.53646 58.6875 9.32812C58.5 9.11979 58.3802 8.73438 58.3281 8.17188C58.2656 7.18229 57.9844 6.47396 57.4844 6.04688C56.9844 5.60938 56.2083 5.39062 55.1562 5.39062C53.5521 5.39062 52.2083 5.93229 51.125 7.01562C50.0417 8.09896 49.2812 9.66667 48.8438 11.7188C48.4062 13.7604 48.5 15.3281 49.125 16.4219C49.7604 17.5156 50.8802 18.0625 52.4844 18.0625C53.5781 18.0625 54.8594 17.6979 56.3281 16.9688C57.8073 16.2396 58.7188 15.875 59.0625 15.875C59.4688 15.875 59.7708 16.0469 59.9688 16.3906C60.1771 16.7344 60.2292 17.1615 60.125 17.6719C59.9271 18.5885 58.9323 19.4531 57.1406 20.2656C55.3594 21.0781 53.4583 21.4844 51.4375 21.4844C48.7083 21.4844 46.6875 20.5833 45.375 18.7812C44.0729 16.9792 43.7344 14.625 44.3594 11.7188C44.9531 8.91667 46.3021 6.58854 48.4062 4.73438C50.5104 2.88021 52.875 1.95312 55.5 1.95312C56.2396 1.95312 56.9479 2.03646 57.625 2.20312C58.3125 2.36979 59.026 2.63021 59.7656 2.98438ZM77.3438 17.5781H77.5938C78.1562 17.5781 78.5521 17.7292 78.7812 18.0312C79.0208 18.3229 79.0833 18.7448 78.9688 19.2969C78.8333 19.901 78.5833 20.3385 78.2188 20.6094C77.8646 20.8698 77.3333 21 76.625 21H75.1562C74.6354 21 74.2656 20.901 74.0469 20.7031C73.8385 20.5052 73.7031 20.1458 73.6406 19.625C72.6615 20.1979 71.651 20.6354 70.6094 20.9375C69.5781 21.2396 68.5677 21.3906 67.5781 21.3906C65.901 21.3906 64.6719 20.974 63.8906 20.1406C63.1094 19.3073 62.875 18.1667 63.1875 16.7188C63.5208 15.1562 64.3958 13.9427 65.8125 13.0781C67.2396 12.2135 69.0729 11.7812 71.3125 11.7812C71.8125 11.7812 72.3385 11.8073 72.8906 11.8594C73.4427 11.9115 74.0521 11.9948 74.7188 12.1094L74.7812 11.8125C74.9896 10.875 74.9167 10.1615 74.5625 9.67188C74.2188 9.18229 73.6042 8.9375 72.7188 8.9375C72.0312 8.9375 71.099 9.19271 69.9219 9.70312C68.7448 10.2135 67.9062 10.4688 67.4062 10.4688C66.9167 10.4688 66.5469 10.3281 66.2969 10.0469C66.0573 9.75521 65.9896 9.375 66.0938 8.90625C66.2708 8.0625 67.026 7.39583 68.3594 6.90625C69.7031 6.40625 71.4375 6.15625 73.5625 6.15625C75.7812 6.15625 77.2812 6.58333 78.0625 7.4375C78.8438 8.29167 79.0156 9.73958 78.5781 11.7812L77.3438 17.5781ZM74.2031 14.5625C73.7031 14.4479 73.2396 14.3646 72.8125 14.3125C72.3958 14.25 72 14.2188 71.625 14.2188C70.4792 14.2188 69.5365 14.4115 68.7969 14.7969C68.0677 15.1823 67.6302 15.7135 67.4844 16.3906C67.3594 16.9948 67.4688 17.4583 67.8125 17.7812C68.1667 18.0938 68.7344 18.25 69.5156 18.25C70.2344 18.25 70.9323 18.1458 71.6094 17.9375C72.2865 17.7292 72.9792 17.4062 73.6875 16.9688L74.2031 14.5625ZM92.1094 17.5781H95.4688C96.1875 17.5781 96.6615 17.7083 96.8906 17.9688C97.1302 18.2292 97.1875 18.6615 97.0625 19.2656C96.9375 19.8802 96.6979 20.3229 96.3438 20.5938C95.9896 20.8646 95.4583 21 94.75 21H84.1562C83.4583 21 82.9896 20.8646 82.75 20.5938C82.5104 20.3229 82.4531 19.8802 82.5781 19.2656C82.7135 18.651 82.9479 18.2188 83.2812 17.9688C83.625 17.7083 84.1562 17.5781 84.875 17.5781H88.2344L91.125 4.01562H89.4062C88.6979 4.01562 88.2188 3.88021 87.9688 3.60938C87.7188 3.32812 87.6562 2.88542 87.7812 2.28125C87.9167 1.66667 88.1615 1.22396 88.5156 0.953125C88.8802 0.682292 89.4219 0.546875 90.1406 0.546875H94.8125C95.1042 0.546875 95.3177 0.609375 95.4531 0.734375C95.5885 0.848958 95.6354 1.01042 95.5938 1.21875L92.1094 17.5781ZM116.203 7.40625C116.422 7 116.682 6.69792 116.984 6.5C117.297 6.29167 117.661 6.1875 118.078 6.1875C118.641 6.1875 119.005 6.35938 119.172 6.70312C119.339 7.03646 119.333 7.61979 119.156 8.45312L118.609 11.0156C118.474 11.651 118.245 12.1198 117.922 12.4219C117.599 12.724 117.167 12.875 116.625 12.875C116.24 12.875 115.932 12.7865 115.703 12.6094C115.484 12.4323 115.281 12.0938 115.094 11.5938C114.833 10.8854 114.401 10.3646 113.797 10.0312C113.193 9.6875 112.401 9.51562 111.422 9.51562C110.203 9.51562 109.12 9.91667 108.172 10.7188C107.224 11.5104 106.62 12.526 106.359 13.7656C106.078 15.0677 106.255 16.1146 106.891 16.9062C107.526 17.6979 108.521 18.0938 109.875 18.0938C111.104 18.0938 112.396 17.7552 113.75 17.0781C115.115 16.3906 115.932 16.0469 116.203 16.0469C116.589 16.0469 116.875 16.1979 117.062 16.5C117.26 16.7917 117.312 17.1615 117.219 17.6094C117.01 18.5885 116.078 19.4635 114.422 20.2344C112.776 21.0052 110.932 21.3906 108.891 21.3906C106.37 21.3906 104.469 20.6823 103.188 19.2656C101.917 17.849 101.516 16.026 101.984 13.7969C102.453 11.6198 103.62 9.80729 105.484 8.35938C107.359 6.91146 109.484 6.1875 111.859 6.1875C112.661 6.1875 113.422 6.28646 114.141 6.48438C114.859 6.68229 115.547 6.98958 116.203 7.40625Z" fill="black"/>
    </g>
    <defs>
        <filter id="filter0_d_8_11" x="0.921875" y="0.546875" width="122.5" height="28.9375" filterUnits="userSpaceOnUse" color-interpolation-filters="sRGB">
            <feFlood flood-opacity="0" result="BackgroundImageFix"/>
            <feColorMatrix in="SourceAlpha" type="matrix" values="0 0 0 0 0 0 0 0 0 0 0 0 0 0 0 0 0 0 127 0" result="hardAlpha"/>
            <feOffset dy="4"/>
            <feGaussianBlur stdDeviation="2"/>
            <feComposite in2="hardAlpha" operator="out"/>
            <feColorMatrix type="matrix" values="0 0 0 0 0 0 0 0 0 0 0 0 0 0 0 0 0 0 0.25 0"/>
            <feBlend mode="normal" in2="BackgroundImageFix" result="effect1_dropShadow_8_11"/>
            <feBlend mode="normal" in="SourceGraphic" in2="effect1_dropShadow_8_11" result="shape"/>
        </filter>
    </defs>
</svg>
